# xmcd CD database file
# Copyright (C) 1993-1996 Ti Kan
#
# Track frame offsets:
# 150
# 13742
# 25532
# 35107
# 50175
# 63805
# 77327
# 89425
# 100757
# 111342
# 126240
# 136797
# 149532
# 162085
# 176257
# 187885
# 200277
# 212825
# 224472
# 235572
#
# Disc length: 3360 seconds
#
# Revision: 0
# Processed by: cddbd v1.4b41PL1 Copyright (c) Steve Scherf et al.
# Submitted via: inCDius 1.1b5
#
DISCID=0f0d1e14
DTITLE=Johnny Paycheck - 20 Greatest Hits
DYEAR=1900
DGENRE=
TTITLE0=(Don't Take Her) She's All I Got
TTITLE1=Take This Job And Shove It
TTITLE2=Mr. Lovemaker
TTITLE3=Someone To Give My Love To
TTITLE4=I'm The Only Hell Mama Ever Raised
TTITLE5=Song and Dance Man
TTITLE6=Something About You I Love
TTITLE7=For A Minute There
TTITLE8=A-11
TTITLE9=Green Green Grass Of Home
TTITLE10=Don't Monkey With Another Monkey's Monkey
TTITLE11=Heaven's Almost As Big As Texas
TTITLE12=Close All The Honky Tonks
TTITLE13=Almost Persuaded
TTITLE14=Release Me
TTITLE15=All The Time
TTITLE16=Crazy Arms
TTITLE17=Heartaches By The Number
TTITLE18=Apartment Number Nine
TTITLE19=Danny Boy
EXTD=
EXTT0=
EXTT1=
EXTT2=
EXTT3=
EXTT4=
EXTT5=
EXTT6=
EXTT7=
EXTT8=
EXTT9=
EXTT10=
EXTT11=
EXTT12=
EXTT13=
EXTT14=
EXTT15=
EXTT16=
EXTT17=
EXTT18=
EXTT19=
PLAYORDER=
